<?xml version="1.0" encoding="iso-8859-1"?>
<!DOCTYPE svg PUBLIC "-//W3C//DTD SVG 1.1//EN" "http://www.w3.org/Graphics/SVG/1.1/DTD/svg11.dtd">
<svg version="1.1" id="Capa_1" xmlns="http://www.w3.org/2000/svg" xmlns:xlink="http://www.w3.org/1999/xlink" x="0px" y="0px"
	 width="481.045px" height="481.045px" viewBox="0 0 481.045 481.045" style="enable-background:new 0 0 481.045 481.045;fill: grey;"
	 xml:space="preserve">
<g>
	<path d="M434.874,241.031l35.405-36.292c4.403-4.513,6.225-10.947,4.838-17.097c-1.387-6.15-5.79-11.182-11.704-13.37
		l-47.546-17.595l16.163-48.054c2.011-5.976,0.859-12.563-3.056-17.504c-3.917-4.94-10.07-7.572-16.344-6.971l-50.479,4.766
		l-6.27-50.309c-0.779-6.257-4.672-11.694-10.346-14.448c-5.671-2.753-12.353-2.45-17.75,0.806L283.97,51.391L256.094,8.477
		C252.659,3.19,246.782,0,240.478,0c-6.304,0-12.182,3.19-15.617,8.478l-27.616,42.517l-43.322-26.333
		c-5.386-3.275-12.065-3.603-17.748-0.868c-5.681,2.735-9.592,8.158-10.394,14.412l-6.448,50.288l-50.457-4.942
		c-6.273-0.619-12.435,1.988-16.368,6.915c-3.933,4.927-5.106,11.51-3.117,17.492l15.994,48.109l-47.609,17.429
		c-5.92,2.167-10.341,7.184-11.748,13.329c-1.408,6.146,0.39,12.586,4.775,17.114l35.279,36.414l-35.34,36.351
		c-4.394,4.521-6.203,10.958-4.808,17.104c1.398,6.148,5.812,11.172,11.728,13.35L65.24,324.67l-16.083,48.082
		c-2,5.979-0.84,12.564,3.086,17.498c3.925,4.936,10.082,7.549,16.355,6.943l50.465-4.854l6.362,50.301
		c0.792,6.254,4.692,11.684,10.369,14.428c5.677,2.746,12.356,2.43,17.748-0.836l43.37-26.258l27.545,42.566
		c3.425,5.293,9.297,8.494,15.601,8.504c0.01,0,0.021,0,0.032,0c6.293,0,12.162-3.178,15.598-8.449l27.692-42.469l43.279,26.41
		c5.381,3.285,12.06,3.623,17.745,0.898c5.687-2.727,9.606-8.143,10.42-14.395l6.535-50.277l50.451,5.029
		c6.281,0.625,12.438-1.967,16.38-6.887c3.941-4.92,5.126-11.5,3.146-17.486l-15.912-48.135l47.639-17.348
		c5.924-2.156,10.354-7.166,11.772-13.309s-0.368-12.586-4.747-17.122L434.874,241.031z M180.785,281.915
		c0,3.024-2.451,5.476-5.476,5.476h-16.366c-1.953,0-3.757-1.039-4.737-2.729l-19.148-33.008
		c-3.132-5.383-8.644-15.19-13.691-25.864c0.375,10.122,0.558,20.905,0.558,32.748v23.377c0,3.024-2.452,5.476-5.476,5.476h-11.891
		c-3.025,0-5.477-2.451-5.477-5.476v-82.781c0-3.024,2.452-5.477,5.477-5.477h18.926c1.933,0,3.722,1.02,4.708,2.681l18.572,31.28
		c4.251,7.204,8.511,15.414,12.167,23.404c-0.679-8.5-0.99-17.888-0.99-29.315v-22.571c0-3.024,2.451-5.477,5.476-5.477h11.891
		c3.025,0,5.476,2.453,5.476,5.477L180.785,281.915L180.785,281.915z M254.996,281.915c0,3.024-2.452,5.476-5.477,5.476h-52.727
		c-3.024,0-5.477-2.451-5.477-5.476v-82.781c0-3.024,2.452-5.477,5.477-5.477h50.755c3.024,0,5.476,2.453,5.476,5.477v8.98
		c0,3.024-2.451,5.477-5.476,5.477h-31.56v15.689h29.445c3.025,0,5.477,2.452,5.477,5.477v8.847c0,3.024-2.451,5.476-5.477,5.476
		h-29.445v18.379h33.53c3.024,0,5.477,2.452,5.477,5.476L254.996,281.915L254.996,281.915z M381.773,200.563l-22.386,82.78
		c-0.646,2.388-2.812,4.048-5.286,4.048h-17.053c-2.6,0-4.841-1.828-5.364-4.373l-7.38-35.841
		c-1.332-6.655-2.422-12.51-3.323-18.649c-1.181,6.586-2.387,12.515-3.911,18.703l-8.302,35.916
		c-0.574,2.484-2.787,4.244-5.336,4.244h-17.347c-2.517,0-4.708-1.714-5.314-4.156l-20.585-82.779c-0.407-1.635-0.039-3.367,1-4.695
		c1.038-1.328,2.63-2.104,4.314-2.104h14.718c2.625,0,4.882,1.864,5.377,4.443l6.575,34.212c1.521,7.751,2.967,15.958,4.237,23.386
		c1.299-7.111,2.9-14.836,4.8-23.696l7.362-34.027c0.545-2.52,2.774-4.319,5.353-4.319h16.447c2.611,0,4.859,1.846,5.371,4.407
		l6.977,35.029c1.375,6.916,2.567,13.688,3.719,21.153c0.84-4.963,1.786-10.026,2.765-15.268l0.063-0.335
		c0.406-2.177,0.812-4.362,1.216-6.554c0.007-0.044,0.016-0.087,0.025-0.13l7.086-33.944c0.53-2.538,2.768-4.358,5.36-4.358h13.536
		c1.705,0,3.313,0.794,4.35,2.148C381.872,197.159,382.219,198.918,381.773,200.563z"/>
</g>
<g>
</g>
<g>
</g>
<g>
</g>
<g>
</g>
<g>
</g>
<g>
</g>
<g>
</g>
<g>
</g>
<g>
</g>
<g>
</g>
<g>
</g>
<g>
</g>
<g>
</g>
<g>
</g>
<g>
</g>
</svg>
